 <svg width="204" height="64" viewBox="0 0 204 64" fill="none" xmlns="http://www.w3.org/2000/svg">
          <path d="M10.024 48.384C6.90933 48.384 4.47733 47.5733 2.728 45.952C0.978667 44.288 0.104 41.7067 0.104 38.208C0.104 35.264 0.68 32.0213 1.832 28.48C2.984 24.9387 4.86133 21.888 7.464 19.328C10.0667 16.7253 13.3733 15.424 17.384 15.424C22.0773 15.424 24.424 17.472 24.424 21.568C24.424 23.9573 23.7413 26.1547 22.376 28.16C21.0107 30.1653 19.1973 31.7867 16.936 33.024C14.6747 34.2187 12.264 34.9013 9.704 35.072C9.61867 36.0107 9.576 36.6507 9.576 36.992C9.576 40.5333 10.8987 42.304 13.544 42.304C14.7387 42.304 16.0187 41.984 17.384 41.344C18.7493 40.704 19.9867 39.8933 21.096 38.912C19.944 45.2267 16.2533 48.384 10.024 48.384ZM10.152 32C11.7733 31.9573 13.288 31.424 14.696 30.4C16.1467 29.376 17.2987 28.0747 18.152 26.496C19.048 24.8747 19.496 23.1893 19.496 21.44C19.496 19.6907 18.9627 18.816 17.896 18.816C16.4027 18.816 14.9093 20.1813 13.416 22.912C11.9653 25.6 10.8773 28.6293 10.152 32ZM44.9815 4.032C41.7388 5.09866 39.2215 6.86933 37.4295 9.344C35.6802 11.776 34.8055 14.8053 34.8055 18.432C34.8055 20.0533 34.9548 21.1627 35.2535 21.76C35.5522 22.3573 35.7015 22.72 35.7015 22.848C31.1362 22.848 28.8535 20.9067 28.8535 17.024C28.8535 14.3787 29.8562 11.7333 31.8615 9.088C33.9095 6.4 36.5122 4.224 39.6695 2.56C42.8695 0.85333 46.0482 -3.8147e-06 49.2055 -3.8147e-06C50.7842 -3.8147e-06 52.4055 0.298663 54.0695 0.895996L52.5975 34.624L66.6775 0.895996H75.8935L69.1735 48H59.9575L64.0535 19.264L52.0215 48H43.2535L44.5335 19.136L33.8455 48H28.7255L44.9815 4.032ZM82.4925 48.384C80.0605 48.384 78.0338 47.552 76.4125 45.888C74.7912 44.224 73.9805 41.6213 73.9805 38.08C73.9805 34.9227 74.5992 31.616 75.8365 28.16C77.1165 24.6613 78.9938 21.7173 81.4685 19.328C83.9858 16.896 86.9725 15.68 90.4285 15.68C92.1778 15.68 93.4792 15.9787 94.3325 16.576C95.1858 17.1733 95.6125 17.9627 95.6125 18.944V19.392L96.3165 16H105.533L100.925 37.76C100.754 38.4 100.669 39.0827 100.669 39.808C100.669 41.6427 101.543 42.56 103.293 42.56C104.487 42.56 105.511 42.0053 106.365 40.896C107.261 39.7867 107.965 38.336 108.477 36.544H111.165C109.586 41.152 107.623 44.288 105.277 45.952C102.973 47.5733 100.647 48.384 98.3005 48.384C96.5085 48.384 95.0578 47.8933 93.9485 46.912C92.8818 45.888 92.2418 44.416 92.0285 42.496C90.7912 44.2453 89.4045 45.6747 87.8685 46.784C86.3752 47.8507 84.5832 48.384 82.4925 48.384ZM86.6525 42.176C87.7192 42.176 88.7645 41.6853 89.7885 40.704C90.8552 39.68 91.5805 38.2933 91.9645 36.544L95.0365 22.08C95.0365 21.5253 94.8232 20.992 94.3965 20.48C93.9698 19.9253 93.3085 19.648 92.4125 19.648C90.7058 19.648 89.1698 20.6507 87.8045 22.656C86.4392 24.6187 85.3725 27.008 84.6045 29.824C83.8365 32.5973 83.4525 35.0507 83.4525 37.184C83.4525 39.3173 83.7512 40.6827 84.3485 41.28C84.9885 41.8773 85.7565 42.176 86.6525 42.176ZM131.604 48.384C129.001 48.384 127.081 47.7013 125.844 46.336C124.649 44.928 124.052 43.2 124.052 41.152C124.052 40.256 124.159 39.2533 124.372 38.144C124.585 36.992 124.799 35.8827 125.012 34.816C125.268 33.7493 125.439 33.0667 125.524 32.768C125.865 31.2747 126.185 29.8027 126.484 28.352C126.783 26.9013 126.932 25.728 126.932 24.832C126.932 22.656 126.164 21.568 124.628 21.568C123.519 21.568 122.537 22.1227 121.684 23.232C120.831 24.2987 120.148 25.7067 119.636 27.456L115.284 48H106.068L112.852 16H122.068L121.364 19.328C123.497 16.9387 125.993 15.744 128.852 15.744C131.028 15.744 132.756 16.3413 134.036 17.536C135.316 18.7307 135.956 20.544 135.956 22.976C135.956 24.2133 135.807 25.6 135.508 27.136C135.209 28.6293 134.783 30.464 134.228 32.64C133.887 33.9627 133.567 35.264 133.268 36.544C133.012 37.7813 132.884 38.7627 132.884 39.488C132.884 40.3413 133.076 41.0027 133.46 41.472C133.844 41.9413 134.505 42.176 135.444 42.176C136.724 42.176 137.748 41.728 138.516 40.832C139.284 39.8933 140.052 38.464 140.82 36.544H143.508C141.929 41.2373 140.095 44.3947 138.004 46.016C135.956 47.5947 133.823 48.384 131.604 48.384ZM152.141 64C150.093 64 148.386 63.4667 147.021 62.4C145.655 61.3333 144.973 59.7973 144.973 57.792C144.973 55.36 145.954 53.3973 147.917 51.904C149.879 50.4533 152.375 49.2373 155.405 48.256L156.173 44.864C153.997 47.2107 151.437 48.384 148.493 48.384C146.061 48.384 144.034 47.552 142.413 45.888C140.791 44.224 139.98 41.6213 139.98 38.08C139.98 34.9227 140.599 31.616 141.837 28.16C143.117 24.6613 144.994 21.7173 147.469 19.328C149.986 16.896 152.973 15.68 156.429 15.68C158.178 15.68 159.479 15.9787 160.333 16.576C161.186 17.1733 161.613 17.9627 161.613 18.944V19.328L162.317 16H171.533L165.197 45.696C167.245 45.0133 168.887 43.9893 170.125 42.624C171.362 41.2587 172.407 39.232 173.261 36.544H175.949C174.797 40.3413 173.239 43.136 171.277 44.928C169.314 46.6773 167.095 47.872 164.621 48.512L163.661 53.12C162.807 57.2587 161.335 60.096 159.245 61.632C157.154 63.2107 154.786 64 152.141 64ZM152.653 42.176C153.634 42.176 154.637 41.728 155.661 40.832C156.685 39.936 157.389 38.72 157.773 37.184L161.037 22.016C161.037 21.504 160.823 20.992 160.397 20.48C159.97 19.9253 159.309 19.648 158.413 19.648C156.706 19.648 155.17 20.6507 153.805 22.656C152.439 24.6187 151.373 27.008 150.605 29.824C149.837 32.5973 149.453 35.0507 149.453 37.184C149.453 39.3173 149.751 40.6827 150.349 41.28C150.989 41.8773 151.757 42.176 152.653 42.176ZM150.669 59.008C151.394 59.008 152.098 58.5173 152.781 57.536C153.463 56.5547 153.997 55.1467 154.381 53.312L154.765 51.456C150.583 52.992 148.493 54.8053 148.493 56.896C148.493 57.4507 148.685 57.9413 149.069 58.368C149.453 58.7947 149.986 59.008 150.669 59.008ZM180.93 48.384C178.498 48.384 176.471 47.552 174.85 45.888C173.229 44.224 172.418 41.6213 172.418 38.08C172.418 34.9227 173.037 31.616 174.274 28.16C175.554 24.6613 177.431 21.7173 179.906 19.328C182.423 16.896 185.41 15.68 188.866 15.68C190.615 15.68 191.917 15.9787 192.77 16.576C193.623 17.1733 194.05 17.9627 194.05 18.944V19.392L194.754 16H203.97L199.362 37.76C199.191 38.4 199.106 39.0827 199.106 39.808C199.106 40.6613 199.298 41.28 199.682 41.664C200.109 42.0053 200.791 42.176 201.73 42.176C202.327 42.176 202.797 42.0907 203.138 41.92C202.199 44.3093 201.303 45.9947 200.45 46.976C199.597 47.9147 198.359 48.384 196.738 48.384C194.989 48.384 193.559 47.872 192.45 46.848C191.383 45.7813 190.722 44.3093 190.466 42.432C187.863 46.4 184.685 48.384 180.93 48.384ZM185.09 42.176C186.157 42.176 187.202 41.6853 188.226 40.704C189.293 39.68 190.018 38.2933 190.402 36.544L193.474 22.08C193.474 21.5253 193.261 20.992 192.834 20.48C192.407 19.9253 191.746 19.648 190.85 19.648C189.143 19.648 187.607 20.6507 186.242 22.656C184.877 24.6187 183.81 27.008 183.042 29.824C182.274 32.5973 181.89 35.0507 181.89 37.184C181.89 39.3173 182.189 40.6827 182.786 41.28C183.426 41.8773 184.194 42.176 185.09 42.176Z" fill="black"/>
          </svg>